<svg xmlns="http://www.w3.org/2000/svg" fill="none" viewBox="0.6 0.96 73.71 29.04">
<path d="M38 0.96L41.12 30H30.76L30.12 9.28L26.12 30H15.64L11.56 9.44L10.96 30H0.6L3.72 0.96H17.32L20.8 19.88L23.84 0.96H38ZM74.3109 8.44H52.5509V12.64C53.9109 12.6667 55.9509 12.68 58.6709 12.68C63.3643 12.68 68.1376 12.6 72.9909 12.44V20.28C68.1376 20.0933 63.0176 20 57.6309 20C55.3909 20 53.6976 20.0133 52.5509 20.04V30H43.1109C43.3243 24.8267 43.4309 19.9867 43.4309 15.48C43.4309 10.9733 43.3243 6.13333 43.1109 0.96H74.3109V8.44Z" fill="black"/>
</svg>